/* XPM */
static char *coffee1686816797[] = {
/* columns rows colors chars-per-pixel */
"64 64 195 2 ",
"   c None",
".  c black",
"X  c #000101",
"o  c #010101",
"O  c #020000",
"+  c #020101",
"@  c #000202",
"#  c #000302",
"$  c #020202",
"%  c #050100",
"&  c #000403",
"*  c #000503",
"=  c #000605",
"-  c #000706",
";  c #070707",
":  c #0B0301",
">  c #000906",
",  c #000A07",
"<  c #020C07",
"1  c #000A08",
"2  c #000C0A",
"3  c #000D0B",
"4  c #090909",
"5  c #0C0C0C",
"6  c #100301",
"7  c #120300",
"8  c #150300",
"9  c #130602",
"0  c #140702",
"q  c #1F0500",
"w  c #1D0601",
"e  c #180902",
"r  c #06110B",
"t  c #00100D",
"y  c #00140F",
"u  c #09180F",
"i  c #1A1004",
"p  c #1C1A0F",
"a  c #001210",
"s  c #001311",
"d  c #001412",
"f  c #001613",
"g  c #001714",
"h  c #001917",
"j  c #001A17",
"k  c #001E16",
"l  c #001E1B",
"z  c #001F1B",
"x  c #111111",
"c  c #161616",
"v  c #181818",
"b  c #210A02",
"n  c #230B02",
"m  c #200C03",
"M  c #270E04",
"N  c #280D04",
"B  c #330E02",
"V  c #201207",
"C  c #3D1303",
"Z  c #301709",
"A  c #30170A",
"S  c #331F14",
"D  c #072016",
"F  c #00221F",
"G  c #1F2115",
"H  c #002622",
"J  c #002723",
"K  c #002925",
"L  c #002A25",
"P  c #002C28",
"I  c #002D29",
"U  c #00322C",
"Y  c #00322D",
"T  c #00332D",
"R  c #00332E",
"E  c #003632",
"W  c #003732",
"Q  c #003733",
"!  c #003834",
"~  c #003934",
"^  c #003E38",
"/  c #222222",
"(  c #323232",
")  c #441201",
"_  c #421604",
"`  c #461705",
"'  c #4D1300",
"]  c #4E1400",
"[  c #481805",
"{  c #4B1805",
"}  c #4B1905",
"|  c #4C1905",
" . c #4D1A05",
".. c #511802",
"X. c #551B04",
"o. c #531C06",
"O. c #551E06",
"+. c #581F07",
"@. c #581F08",
"#. c #652C17",
"$. c #473024",
"%. c #4D3328",
"&. c #543C2E",
"*. c #683929",
"=. c #753C27",
"-. c #00403A",
";. c #00433C",
":. c #00433E",
">. c #7A412C",
",. c #6E4336",
"<. c #004640",
"1. c #004741",
"2. c #004B44",
"3. c #004C45",
"4. c #005048",
"5. c #005049",
"6. c #005149",
"7. c #00524A",
"8. c #00524B",
"9. c #00544E",
"0. c #005650",
"q. c #005951",
"w. c #005A52",
"e. c #005C54",
"r. c #005D55",
"t. c #005F56",
"y. c #005F57",
"u. c #006057",
"i. c #006058",
"p. c #006158",
"a. c #006259",
"s. c #00625A",
"d. c #00645B",
"f. c #00655C",
"g. c #00665D",
"h. c #00675E",
"j. c #00695F",
"k. c #006A61",
"l. c #006B62",
"z. c #006B63",
"x. c #006C63",
"c. c #006C64",
"v. c #007066",
"b. c #007269",
"n. c #007369",
"m. c #00746A",
"M. c #00756B",
"N. c #00766C",
"B. c #00776D",
"V. c #00786E",
"C. c #007A6F",
"Z. c #007A70",
"A. c #007B71",
"S. c #007C71",
"D. c #007C72",
"F. c #007D73",
"G. c #007E73",
"H. c #007F74",
"J. c #494949",
"K. c #8B5340",
"L. c #905946",
"P. c #945D4B",
"I. c #945E4B",
"U. c #955F4C",
"Y. c #008075",
"T. c #008176",
"R. c #008277",
"E. c #008378",
"W. c #00857A",
"Q. c #00867A",
"!. c #00867B",
"~. c #00877B",
"^. c #00877C",
"/. c #00887C",
"(. c #00887D",
"). c #00897D",
"_. c #008A7E",
"`. c #008B7F",
"'. c #008C81",
"]. c #008E83",
"[. c #959595",
"{. c #989898",
"}. c gray64",
"|. c #C0C0C0",
" X c #C1C1C1",
".X c #C3C3C3",
"XX c gray77",
"oX c #C5C5C5",
"OX c gainsboro",
"+X c gray88",
"@X c gray89",
"#X c gray97",
"$X c #FBFBFB",
"%X c #FDFDFD",
"&X c white",
/* pixels */
"                                                                                                                                ",
"                                                                                                                                ",
"                                                                                                                                ",
"                                                                                                                                ",
"                                                                                                                                ",
"                                                                                                                                ",
"                                                                                                                                ",
"                                                                                                                                ",
"                                                        . . .                                                                   ",
"                                                        . . 5 . .                                                               ",
"                                                        ( . #X X.                                                               ",
"                                                        . . &XXX.                                                               ",
"                                                      . . OX&X. .                                                               ",
"                                                    . . XX&X. .                                                                 ",
"                                                    . [.&Xx .                                                                   ",
"                                                  . c &X X. J.                                                                  ",
"                                                  . }.&X+X. . .                                                                 ",
"                                                . . +X&X&X X. . .                                                               ",
"                                                  . XX&X&X&X&X{..                                                               ",
"                                                  . ; $X&X&X&Xc .                                                               ",
"                                                    . . / 5 . .                                                                 ",
"                                                      . . .                                                                     ",
"                                          . . . . . .   . .     . . . . . . .                                                   ",
"                            . . . . . . . . . . . . . . . . . . . . . . . . . . . . . . . .                                     ",
"                        . . . J u.g.s.x.M.Z.Y.Y.Z.V.V.V.S.Z.N.v.l.j.c.b.N.Z.Y.W.W.W.l.Y . . .                                   ",
"                      . . W ].].g.Y f > . . . . . . . . . . . . . . . . . . . > z 4.'.].].S.& . . . . .                         ",
"                      . :.].r.. . . . : 6 0 0 e n V N n b n V i S %.$.Z b w 6 % . . . 3.].].g.. P H.R . .                       ",
"                    . f ].S.. . { +.+.+.+.+.+.+.+.+.+.+.+.+.X.+.K.L.P.#...+.+.@.+.+.0 . Y.].d.j ].].].N.. .                     ",
"                    . f ].x.. B +.+.+.+.+.+.O.+.+.+.+.+.+.+.] =.U.P.>.] +.@.+.+.O.o.< . ).].^.^.].].].].r..                     ",
"                    . . ).].t . r u p Z C _ ` {  . . . . . .) *.,.&.G D k t & . . . . r.].].].N.. . H.].].. .                   ",
"                      . r.].W.> . . . . . . . . . . . . . . . . . . . . . . . 3 L 2.N.].].].S.. . . g ].].j .                   ",
"                      . P ].].].W.V.x.s.q.4.1.:.^ ! W W W ! -.1.4.r.g.M.H.).].].].].].].].].Y .   j . ].].3 .                   ",
"                      . . ].].].].].].].].].].].].].].].].].].].].].].].].].].].].].].].].].& .   . j ].).. f                   ",
"                      . . H.].].].].].].].].].].].].].].].].].].].].].].].].].].].].].].].].. .   . s.].q..                     ",
"                        . 4.].].].].].].].].].].].].].].].].].].].].].].].].].].].].].].].].F . . t ].].F .                     ",
"                        . J ].].].].].].].].].].].].].].].].].].].].].].].].].].].].].].].].U . . M.].W.. .                     ",
"                        . . ].].].].].].].].].].].].].].].].].].].].].].].].].].].].].].].].).4.V.].].3..                       ",
"                          . g.].].].].].].].].].].].].].].].].].].].].].].].].].].].].].].Y.9.W.].].).. .                       ",
"                          . F ].].].].].].].].].].].].].].].].].].].].].].].].].].].].].].s.. s.].].P .                         ",
"                          . . E.].].].].].].].].].].].].].].].].].].].].].].].].].].].].].R . S.].4.. .                         ",
"                            . 1.].].].].].].].].].].].].].].].].].].].].].].].].].].].].].. 1 ].r.. .                           ",
"                            . . ].].].].].].].].].].].].].].].].].].].].].].].].].].].].Y.. 3.j.. .                             ",
"                              . s.].].].].].].].].].].].].].].].].].].].].].].].].].].].q.. t . .                               ",
"                              . . ].].].].].].].].].].].].].].].].].].].].].].].].].].].l . . .                                 ",
"                                . 1.].].].].].].].].].].].].].].].].].].].].].].].].].l.. .                                     ",
"                                . . g.].].].].].].].].].].].].].].].].].].].].].].].].3 .                                       ",
"                                  . . 0.].].].].].].].].].].].].].].].].].].].].].].! .                                         ",
"                                    . . 3 S.].].].].].].].].].].].].].].].].].].].P . .                                         ",
"                                      . . . t s.'.].].].].].].].].].].].].].].g.. . .                                           ",
"                                          . . . . f u.H.].].].].].].].W.g.J . . .                                               ",
"                                                . . . . . & F Y L 3 . . . . . .                                                 ",
"                                                      - - . . . . . . .                                                         ",
"                                                                                                                                ",
"                                                                                                                                ",
"                                                                                                                                ",
"                                                                                                                                ",
"                                                                                                                                ",
"                                                                                                                                ",
"                                                                                                                                ",
"                                                                                                                                ",
"                                                                                                                                ",
"                                                                                                                                ",
"                                                                                                                                ",
"                                                                                                                                "
};
