/* XPM */
static char *eli1686816778[] = {
/* columns rows colors chars-per-pixel */
"64 64 231 2 ",
"   c None",
".  c #010000",
"X  c #0B0100",
"o  c #030A09",
"O  c #130000",
"+  c #1B0100",
"@  c #1B0B07",
"#  c #14120D",
"$  c #170B17",
"%  c #05161A",
"&  c #171918",
"*  c #060E10",
"=  c #230100",
"-  c #2B0100",
";  c #2C0B04",
":  c #350100",
">  c #3C0200",
",  c #3A0D01",
"<  c #281308",
"1  c #311504",
"2  c #261717",
"3  c #331012",
"4  c #3B2615",
"5  c #2D2613",
"6  c #3F1D2B",
"7  c #173036",
"8  c #362C27",
"9  c #393229",
"0  c #383536",
"q  c #2B2D2F",
"w  c #0A1A26",
"e  c #430300",
"r  c #4B0200",
"t  c #440904",
"y  c #530400",
"u  c #5B0300",
"i  c #550900",
"p  c #5E0B00",
"a  c #49120F",
"s  c #640400",
"d  c #6A0500",
"f  c #610B00",
"g  c #6B0D00",
"h  c #720600",
"j  c #720D00",
"k  c #7B0B00",
"l  c #6B1000",
"z  c #671000",
"x  c #731000",
"c  c #7C1200",
"v  c #472716",
"b  c #562917",
"n  c #49381C",
"m  c #573118",
"M  c #6E3415",
"N  c #412525",
"B  c #563427",
"V  c #433B39",
"C  c #553B35",
"Z  c #4A3030",
"A  c #693C21",
"S  c #663133",
"D  c #621625",
"F  c #5F4500",
"G  c #504631",
"H  c #745B3A",
"J  c #6E4A32",
"K  c #776337",
"L  c #6D4E12",
"P  c #103B41",
"I  c #383E40",
"U  c #783748",
"Y  c #6A384B",
"T  c #374647",
"R  c #3C5556",
"E  c #324B4F",
"W  c #3C7068",
"Q  c #5A4C4A",
"!  c #4A5356",
"~  c #5C5C5C",
"^  c #595958",
"/  c #4E4D4F",
"(  c #665854",
")  c #695348",
"_  c #61605F",
"`  c #565F61",
"'  c #596368",
"]  c #536E73",
"[  c #696869",
"{  c #716C6C",
"}  c #666E71",
"|  c #697879",
" . c #7A7776",
".. c #6D706E",
"X. c #861300",
"o. c #830D00",
"O. c #A14B1F",
"+. c #915837",
"@. c #9E6435",
"#. c #C97A3C",
"$. c #943246",
"%. c #964B56",
"&. c #A9485D",
"*. c #896843",
"=. c #967549",
"-. c #8D6F4C",
";. c #A9754A",
":. c #B57D55",
">. c #A17250",
",. c #915266",
"<. c #A65969",
"1. c #AD5A6E",
"2. c #867F7D",
"3. c #BC677D",
"4. c #CC506A",
"5. c #C77F7A",
"6. c #93865B",
"7. c #AA8858",
"8. c #B68558",
"9. c #AC905E",
"0. c #8E807F",
"q. c #BC9862",
"w. c #BBA26E",
"e. c #D98C58",
"r. c #C78850",
"t. c #E38F59",
"y. c #F89553",
"u. c #D39669",
"i. c #D8A878",
"p. c #CDB279",
"a. c #E6A773",
"s. c #FFB274",
"d. c #FEB57D",
"f. c #F9B57B",
"g. c #EDAB70",
"h. c #FFC27E",
"j. c #B56580",
"k. c #C77285",
"l. c #F87D98",
"z. c #EE7189",
"x. c #CA5C83",
"c. c #6F8188",
"v. c #778686",
"b. c #798E96",
"n. c #7E9595",
"m. c #7D98A4",
"M. c #878A89",
"N. c #848E91",
"B. c #8D9A9D",
"V. c #859396",
"C. c #969A9A",
"Z. c #84918F",
"A. c #91A09E",
"S. c #8B9CA2",
"D. c #99A5A7",
"F. c #96B0AE",
"G. c #A4A7A9",
"H. c #A6B5B6",
"J. c #B5B9BB",
"K. c #A9A7AA",
"L. c #DB8499",
"P. c #E8859E",
"I. c #F08A9F",
"U. c #DEB181",
"Y. c #FFB782",
"T. c #FFBB84",
"R. c #FFBD8A",
"E. c #EDB783",
"W. c #FD89A6",
"Q. c #FD92AC",
"!. c #F594AE",
"~. c #FF9BB5",
"^. c #FF9CBB",
"/. c #FF96B1",
"(. c #ED90A8",
"). c #D0ADA7",
"_. c #FFA4BC",
"`. c #FFA5BA",
"'. c #A0C4BE",
"]. c #FFC585",
"[. c #FFC48E",
"{. c #FFCB8D",
"}. c #F5C489",
"|. c #FFD38B",
" X c #FFC690",
".X c #FFCB93",
"XX c #FFD396",
"oX c #FFD59B",
"OX c #FFDB9D",
"+X c #FBD691",
"@X c #FFE89A",
"#X c #FFE28F",
"$X c #CAC8BF",
"%X c #FFDFA1",
"&X c #FFE3A4",
"*X c #FFEAA9",
"=X c #FFF5AD",
"-X c #AABBC4",
";X c #BABFC0",
":X c #FFA5C3",
">X c #FFACC4",
",X c #FFACCA",
"<X c #FFA6CB",
"1X c #FFB2CD",
"2X c #FFB1C5",
"3X c #FFB4D3",
"4X c #FFBBD6",
"5X c #FFBDDA",
"6X c #FFB9E3",
"7X c #B7C6C9",
"8X c #BAD3D8",
"9X c #B5C7CB",
"0X c #C9D5D8",
"qX c #D4D9D9",
"wX c #C6C9CA",
"eX c #FFC1DE",
"rX c #D6DFE1",
"tX c #C7D5E0",
"yX c #FFC5E5",
"uX c #FFC8E5",
"iX c #FFCFF7",
"pX c #DCE4E6",
"aX c #D8E7E9",
"sX c #DDF0ED",
"dX c #E7E8E8",
"fX c #E4EFF2",
"gX c #E8F5F7",
"hX c #F4F5F5",
"jX c #F4FBFD",
"kX c #FFFFFF",
"lX c #F0F7F8",
/* pixels */
"                                                                                                                                ",
"                                                                                                                                ",
"                                                                                                                                ",
"                                              kX                                      kXkX                                      ",
"                                kXkXkX    kXkXlXkXkX                      kXkXkXkXjX8XM.Q dX                                    ",
"                                kXQ / 7XkXkXM.= Z n.kXkX          kXgXD. .) C B C b e . . pX                                    ",
"                                jX< . O B.kXD.. y . 0 0XkX    kXqX{ a + - : e r r : - } jXkX                                    ",
"                                kXaX= e . V.kX .- k : + 7XkXkXG.= = y g g f f f j > . N.aXkXkXkXkXkXkX                          ",
"                    kXjXaXgXkXkXkXkX8XX d . D.8XO d g r - ).K.= y g f f f p f f p g s = + 8 ` [ Q 2  .kX                        ",
"                    pXO : 4 C ( { [ ^ : h s = ; i g f f u e > u f f p f f f f p f p f g s > + = X . V.kX                        ",
"                    kX..= u : = = = : g f z s u g p f f f u p f f p f f f p p p f f f f f g l = q 7XkX                          ",
"              kXkXkXpXm.O d f g g g f f p f f f p p f p f p p f f f f p f p f p f f f f f f f = q H.lXkXkXkXkXkXkX              ",
"            kXC.( B - + f f f p f p f f f f f p f f f p f p f f p f f f p f p g r i g p f p f x r . 2 ^ v.B.V.{ ( jX            ",
"            kX/ . - d d g p f f f f f p p p f f f p f f f p f p f f p f p f p g + i f f f f f p g g r = X . = . & kX            ",
"            kXkX0X2 y f f f p p f g p p f f p f p f p f f f p f p p f f f f p c = - x p p p f f p p f j o.k + o gX              ",
"              kXkX< y f p f f f i f f f f p f f f f p f p f f f f f f p f p g i > O p f f f f p p p g f - X 7 qXkX              ",
"              kX{ O j f p f f g e > j p f f f f f f p z r r l f f p p f f f i + = X e g f f f p f f j X R 7XkXkX                ",
"            kXaX. s f p f p f g x : > g p f j f p p g r l M r f p f f f f j - - x t f f f f f f p f g O _ kX                    ",
"          kXkX/ + x p f f p f i t O = j x u - p f g y X f.f.X r j f f p f g y X f x f p p g i i f f f d . 7XkX                  ",
"        kXkXS.. d p f f p x - X > t l g + ; 9 - X.r . 8.+X|.8.= O > u g g g c : O g f p j t = p f f p x - & kX                  ",
"      kX0X[ X s x p f f f g > O : > + X J g.n + + . 8.+Xs.s.{.f.*.b - + O + = X - g f f p + i l f f f p k . | kX                ",
"      kXv.. + = e l f p f f l i : - = e.@Xe.. b *.g.|.s.d.d.s.h.|.].s.u.8.+.-.A = s g x > = x p f f f p f u . qX                ",
"        kXqXC.D.V > f p g y i k c f O.@.N G ) 4 e.&Xs.T.[.R.T.d.].|.y.y.g.#X=X}.+.= - g + : j p f f f f f c . ! kX              ",
"            kXkXN r f l > = p i - . 5 ' 9XkXkX-X. r.XXR.R.R.R.oXd.m ( ..) J #.|.@Xa.J . : f f f f p p f f f r @ jX              ",
"            kXH.. h p g e - e . . ! 0XkXkXkXkXkX` . oX[.R.R. X{.4 b.kXkXkX-X' J #.#X@Xb e k p f f f p f j f d . 9XkX            ",
"            kXV - g f p f y + # D.kXkXkXkXkXkXkXS.. Y..XR.T.&XM ] kXkXkXkXkXkX-X{ *.8.r.v e p f f f f p : s X.X } kX            ",
"          kX-X. h p f p = ; 0 aXkXkXkXkXkXkXkXkXv.. Y..XR. Xg.8 lXkXkXkXkXkXkXkXkX0XG.wX+.e p f f p j : % X + X . gX            ",
"          kX2 : l p f f p r ) kXkXkXkXkXkXkXkXkXR .  X XT.XX+.| kXkXkXkXkXkXkXkXkXkXkX).> u s p f f f = ^ 0X' 0 ^ hX            ",
"        kXN.. o.g p p f x X ^ kXkXkXkXkXkXkXkXkX* ; OXR.R.OXA A.kXkXkXkXkXkXkXkXkXkXpX: u f f f f f f s . gXkXkXkX              ",
"        jXX X + : j f f j . c.kXkXkXkXkXkXkXkXhX. +.@XT.R.%XA c.kXkXkXkXkXkXkXkXkXkX! . x f p p p f p x = w kXkX                ",
"        kX .Q N./ : l p x . | kXkXkXkXkXkXkXkX[ . a.h.s.T.oXe.% jXkXkXkXkXkXkXkXkXJ.. y g p f f p f p p j O 7 aXkXkX            ",
"        kXkXkXkX8X. d f g : % kXkXkXkXkXkXkXJ.. 9 E.s.s.T.R.&XM w dXkXkXkXkXkXkXH.. , x f p p f f f p f f j + o D.kXkX          ",
"                fX= u f f k . E lXkXkXkXkXD.. . w.a.s.s.T.R..X{.. . _ G.dXgXwX/ . K @.r f f f p f f f p f f x e . E fX          ",
"                kX0 : g p f g X 2 { C.hXwX. X H p.Y.T.d.R.R.R. X6.X 1 5 # & X @ 9.p.t s f p f f f p f f f p g c h X o qX        ",
"                kX| O l f p f d e K L $X| . G 7.]. XR.R.R.R.R.R.}.6.H q.7.6.9.p.}.n : l g f f f p f p f f f t + u X.O q jX      ",
"                kXD.. j f y y > *.p.n dXqX. *.{.[.R.R..XXX.XR.R.[.E.6.{ w.w.w.g.J = k f y r f f f f p f f j + 7 X - e . fX      ",
"                kX0XO s g e X A OXT.*.D.m.4 .X[.R.R. Xa.;.u.oXR.R.R.R.U.i.i.d.].B = - - - e f f f p p f p j . B.0XI 2  .kX      ",
"                  gX; y g i r @ f.%X.Xr.>.T..XR.R.[.T.:.-.B 8.oXR.R.R.R.].T..X=Xt.: e r p t x i i f g g i g e # kXkXlXkX        ",
"                  gX; r p f c . 8 *X.X.XoX XY.R.R.R.Y. X&XT.:.R.R.R.R.R.R.oX&X8.r p l l i : : : f f t p j f j . ] kX            ",
"                kXJ.X d p p g g . H &X%XR.R.R.R.R.R.R.R.s.d..XT.R.R.R. X&X.XG . u f f f f > = f g g O . : j c h . B.kX          ",
"                kXT . s d g i x y . 9 a.&XOX XR.].R.R.T.s.s.T.[..XoX&X[.-.. . s l f p f f g g f p j = ] 0 . O = . . qX          ",
"                kXK.V 3 + y g p j p . . G i. XOX&X&XOXoXXXOX&XXXE.8.G o $ = u l p f p f f f p p g o.. N.kXV.! ! M.J.hX          ",
"                  kXkXfXF.+ s p p g j : . . * V ) ;.;.:.=.H n & # $ Z 3.yXP.+ g p f f f f f g g > e : 0 kXkXkXkXkX              ",
"                      kXkX8 > g f p f j g r + . . . . $ 2 6 Y 1.P.,X<X/.>X5XS : f f p f f p p j @ . : = aX                      ",
"                        kX` + g f f p p f g g x d t !.:X:X5X4X3X,X>X~.~.`.eX3.@ g f f i i c . > t ] @ . H.                      ",
"                        kXB.X j d s g p f g j f s : (.4X_._.W.W.>X:XQ.`.>X:XP.= s f f u . g @ . . wXG.. qX                      ",
"                        kXH.O h + + - k j - X r h - k.<X`._.~.`.`.!.`.`.Q.`.:Xa r f h r P = a R . dXkXdXkX                      ",
"                        kX{ + . v.8X0 . . / n.@ + . k.<X~.Q.~.>Xz.<.4XI.<.1X3XS : s X Q gX. . lXdXkXkXkX                        ",
"                      kXD.. . v.kXkXkXv.' lXkXgX9X} <.3X<.~.2X_.z.,.iX%.1.,X3XU . : ' fXkXG.H.  kXkX                            ",
"                    kXrX. & K.kX      kXkXkX      9X+.%.,.3XQ.3Xk.Y u.6 ^.:X3XU ] aXkX    kXkX                                  ",
"                      hXqXkXkX                    0X1 1 ^.>X~.,Xx.;.F Y uX_.,X$.F.kX                                            ",
"                                                  kX' | z.^.2X>XW.o 4 ,X>X`.<X$.v.kX                                            ",
"                                                    kX7X&.>X~.`.5X3.W.yXQ.^.5X%.| kX                                            ",
"                                                      H.<.4X~.Q.4.&.Y D l.3X3X&.| kX                                            ",
"                                                      F.<.5X1X,.| v.D.] * Q.5X%.| kX                                            ",
"                                                      A.&.uX4.` kX    kXW y 6X%.v.                                              ",
"                                                      Z.1.3X: '.        sX@ :X%.n.                                              ",
"                                                      v.z.4.R kX        kXT 4.<.A.                                              ",
"                                                      C.t 6 aXkX        kXH.3 U H.                                              ",
"                                                      dXT J.kX            kXq . qX                                              ",
"                                                        kXkX              kXqXM.kX                                              ",
"                                                                            kXkX                                                ",
"                                                                                                                                ",
"                                                                                                                                "
};
