/* XPM */
static char *medusa11690885581[] = {
/* columns rows colors chars-per-pixel */
"64 64 220 2 ",
"   c None",
".  c #0E0808",
"X  c #2B1A1B",
"o  c #3A2424",
"O  c #362829",
"+  c #393232",
"@  c #3D302E",
"#  c #482F2F",
"$  c #463334",
"%  c #4E3E3F",
"&  c #5D3435",
"*  c #5B3B3C",
"=  c #513335",
"-  c #693C3C",
";  c #613838",
":  c #44403F",
">  c #70403F",
",  c #533F40",
"<  c #783F41",
"1  c #4E4746",
"2  c #554343",
"3  c #5D4243",
"4  c #534C4B",
"5  c #5B4A4A",
"6  c #584748",
"7  c #5E5656",
"8  c #634242",
"9  c #644C4C",
"0  c #6C4B4A",
"q  c #6C4546",
"w  c #734344",
"e  c #7D4444",
"r  c #744D4C",
"t  c #7A4B4B",
"y  c #764A46",
"u  c #794E50",
"i  c #645554",
"p  c #6B5353",
"a  c #6B5758",
"s  c #635B5A",
"d  c #6A5D5D",
"f  c #755252",
"g  c #7C5252",
"h  c #765B5C",
"j  c #6D605F",
"k  c #705F60",
"l  c #6B6262",
"z  c #6A6666",
"x  c #7B6263",
"c  c #746B6B",
"v  c #796969",
"b  c #7D7473",
"n  c #797677",
"m  c #73706D",
"M  c #824545",
"N  c #8A4646",
"B  c #8B4848",
"V  c #964B4C",
"C  c #815454",
"Z  c #845C5B",
"A  c #8A5B5B",
"S  c #815857",
"D  c #9B5151",
"F  c #92514D",
"G  c #A45352",
"H  c #AB5556",
"J  c #AD5858",
"K  c #B45C5C",
"L  c #BC5F5F",
"P  c #BA5E60",
"I  c #8D6364",
"U  c #846B6C",
"Y  c #8D6C6B",
"T  c #856767",
"R  c #946363",
"E  c #9A6A6A",
"W  c #847374",
"Q  c #8C7373",
"!  c #837B7B",
"~  c #8B7C7C",
"^  c #857878",
"/  c #9E7373",
"(  c #937B7C",
")  c #9C7B7D",
"_  c #A26D6D",
"`  c #B56B6B",
"'  c #A8706F",
"]  c #A57273",
"[  c #AB7474",
"{  c #AC7B7B",
"}  c #B6797A",
"|  c #BC7D7D",
" . c #B17777",
".. c #C46363",
"X. c #CB6665",
"o. c #CE6969",
"O. c #CC6768",
"+. c #D66D6C",
"@. c #DB6E6F",
"#. c #DE7072",
"$. c #DA6F70",
"%. c #E47473",
"&. c #EA7675",
"*. c #EC7978",
"=. c #F57C7C",
"-. c #FF7F7E",
";. c #86807F",
":. c #FD807E",
">. c #F5807D",
",. c #8C7F81",
"<. c #FE7F80",
"1. c #8A8283",
"2. c #8F8B8B",
"3. c #868283",
"4. c #938484",
"5. c #9B8383",
"6. c #938B8B",
"7. c #9B8C8C",
"8. c #9B8888",
"9. c #9A918F",
"0. c #969393",
"q. c #9A9494",
"w. c #9D9A9A",
"e. c #999797",
"r. c #9C8F90",
"t. c #A48484",
"y. c #A68B8B",
"u. c #BE8183",
"i. c #B18C8E",
"p. c #A0908E",
"a. c #A39393",
"s. c #A29D9D",
"d. c #AC9C9C",
"f. c #A89797",
"g. c #B49292",
"h. c #B99594",
"j. c #BA9A9A",
"k. c #AAA09E",
"l. c #A6A2A2",
"z. c #ADA4A4",
"x. c #AFACAE",
"c. c #B4A3A3",
"v. c #BEABAC",
"b. c #B6ABAB",
"n. c #B5B2B3",
"m. c #BBB8B8",
"M. c #B4AEB0",
"N. c #C48483",
"B. c #CC8A8A",
"V. c #C68889",
"C. c #D38E8D",
"Z. c #DE8485",
"A. c #C8999B",
"S. c #DA9393",
"D. c #D49697",
"F. c #D18E90",
"G. c #FE8181",
"H. c #F78081",
"J. c #E69B9B",
"K. c #EE9F9F",
"L. c #EF918F",
"P. c #ECA09F",
"I. c #CEA5A5",
"U. c #C1AEAE",
"Y. c #D7ACAD",
"T. c #C0AFB0",
"R. c #C4B2B2",
"E. c #C9B5B5",
"W. c #C7BBBC",
"Q. c #DEB1B2",
"!. c #EDA2A2",
"~. c #E7AAAC",
"^. c #F3A3A4",
"/. c #FAA5A5",
"(. c #FDA8A7",
"). c #FDA9A9",
"_. c #F7AAAA",
"`. c #E2B5B6",
"'. c #EAB9BB",
"]. c #F2B4B3",
"[. c #FCB5B6",
"{. c #FDBBBD",
"}. c #CCBFC0",
"|. c #C5C3C4",
" X c #CCCACB",
".X c #C8C5C6",
"XX c #DCC5C5",
"oX c #DFCACA",
"OX c #D2C9C9",
"+X c #D1CFD0",
"@X c #D4D2D2",
"#X c #DDDBDC",
"$X c #D8D7D5",
"%X c #E3CCCD",
"&X c #FEC4C4",
"*X c #FFC9C7",
"=X c #FBC7C9",
"-X c #FEC9C9",
";X c #F1C1C2",
":X c #EBD4D4",
">X c #E0DEDF",
",X c #EBD4D6",
"<X c #F3DCDB",
"1X c #F4DBDB",
"2X c #E5CFD0",
"3X c #F8E0DF",
"4X c #EDDFE1",
"5X c #E5E4E4",
"6X c #EDECEC",
"7X c #E8E6E7",
"8X c #FDE4E4",
"9X c #F0EFEF",
"0X c #F7E0E0",
"qX c #F1F0EF",
"wX c #F1EFF0",
"eX c #F5F3F4",
"rX c #F8F6F7",
"tX c #F9F7F8",
"yX c #FAF9F9",
"uX c #F9F8F7",
/* pixels */
"                                                                                                                                ",
"                                                                                                                                ",
"                                                                                                                                ",
"                                                                                                                                ",
"                                                      eXwXrXrXrXeXwX9XeXyXeXwX                                                  ",
"                                              wXeXyX6X X0.c d d l k d c n 0.n.5XyXeXwX                                          ",
"                                        9XeX>Xl.b r M V ` @.%.&.&.&.%.#.+...G N r W x.7XeX                                      ",
"                                    eXeX X! w G %.<.G.<.-.-.-.-.-.-.-.-.-.-.<.<.G.#.V r e.6XeX                                  ",
"                                  rX Xb < o.<.-.-.-.-.-.-.-.-.-.-.-.-.-.-.-.-.-.-.-.-.=.G p  XeX                                ",
"                              6X6X1.w +.-.-.-.-.-.-.-.-.-.-.-.-.-.-.-.-.-.-.-.+.%.-.-.-.-.%.- n.rX                              ",
"                            eX@Xa H G.G.<.-.<.-.-.-.-.-.-.-.-.-.-.-.-.-.=.L M r Z.-.-.-.-.-.=.- n.eX                            ",
"                          eXM.q +.-.K J @.=.-.-.-.-.-.-.-.-.-.-.-.-.&.D w A S.).L.-.-.-.-.-.:.&.8 5X7X                          ",
"                        eXw.M =.-.<.Z.| r ; M K @.*.:.-.-.-.-.-.-.o.& N.[.[.{.[.` <.-.-.-.-.-.-...n yX                          ",
"                      rXl.M -.<.-.G.G.(.(._.~.V.E y G G.-.-.-.-.=.- ~.&X=X*X*X&XA.D -.-.-.-.-.-.<.8 eX                          ",
"                    6X5X& =.<.-.-.-.<.` _.{.&X=X&X{.R ` -.-.-.-.%.C {.*X*X-X-X-X&XA %.-.-.-.-.-.-.B >X                          ",
"                    eX6.L -.-.<.-.<.&.- [.&X*X*X*X&X~.M -.-.-.-.*.A {.*X-X-X-X-X&X/ O.-.-.-.-.-.:.V $XrX                        ",
"                    yX5 H.G.<.-.-.-.+.C [.=X*X*X*X*X].t G.:.-.-.=.F `.*X*X*X*X=X{.C +.-.-.-.-.-.:.t 5X                          ",
"                    yX2 G.<.-.-.-.-.=.; _.&X*X*X*X*XA.B G.-.-.-.-.%.C ].&X&X=X{.] N -.-.-.-.-.:.&.5 rX                          ",
"                    eXd *.G.:.-.-.-.-.K t ].&X&X{.D.w %.-.=.=.-.-.-.+.e Z R A w K =.-.-.:.-.G.=.- |.eX                          ",
"                    eXx.V G.-.-.-.:.-.-.L - g Z t D *.-.-...+.-.-.-.-.-.&.#.&.=.:.G.-.-.-.-.o.* m.eX                            ",
"                      eXd K -.-.-.-.-.-.:.=.&.%.=.<.<.:.<.<.<.<.=.%.@.#.&.=.=.:.=.&.X.H M 0 2.>XeX                              ",
"                      6X5X1.r M J ..O.O.X...O.O...L G B e < * r f 2 k l ^ d o w t # v 9 h +XeX                                  ",
"                        9XeX7X|.l.6.n 8 R R r X C E o 3 Q ! W =XI.4 %Xe.yX@X* (./.9 8.Q E qX                                    ",
"                              wXeXyXa.S.).C.- C.^.0 $ ;Xa 4.( -Xg.s.T.4.rXe.[ (.J.d a.g.] |.wX                                  ",
"                                9X#X] (./.g C./.g s g.-Xh d.x -Xh.e.2 7 c + ' J.E d.y.XXE 4.eX                                  ",
"                                eX6.^.(.V.S C.r O 5 g ,.t.^ 5.t.p S N.S.C.N.E g o 7.g.8XQ [  XqX                                ",
"                                rX~ ).).R C 8 S.).).^.} 0 O 7 r B.' C f A  .^.).^.A 3 f.l V.U yX                                ",
"                                eXm.B.(.r R r | _ S r g R * { q q } K.^.J.' = g S.)./.R + ] ] 7X7X                              ",
"                                  yXY /.t S.N.. a.2Xr.O _ u.X ] ^.).).).(.P.8 i d 3  .B.% Q V.|.rX                              ",
"                                  rXs.S.1 >.).[ , 3 R !.R O ,.j @ 8 h Z f O A.;.0Xn l s s.)  .#X6X                              ",
"                                  eXz.V.4 r (.).)./. .o i.^ w.%XQ ) oX3.>Xt.&Xa 8Xn k.7.#X{ I yX                                ",
"                                  yX7.I x ( # 3 # 2 a.( =X^ ~ d.;.A.E.3.s.Q.A.1 <Xb c.3. X] W yX                                ",
"                                wX0XI v { t.v.3X% E.:Xt.'.3.k.7 A.{ ;.7.;.*X;.a.%X9.9.a.l.B.^ yX                                ",
"                                yXy.,.m I.i E.3X1 R.2Xt.Q.7 %X! t.( ! a.;.*X~ 0.:Xf.3.E.b C.I wX6X                              ",
"                                yXT } 4 I.l U.:Xz b.<X1 Q.5 3X^ W Q b U.c ;X( 3.8Xf.W :Xb [ ^.Q qX6X                            ",
"                                yXT S.$ j.0.f.2X0.6.8X~ ~ i.2Xv.6 Y.j v.;.Y.t.! 8Xa.1.:Xw.^ /.C.k.eX                            ",
"                                yX6.K.g A.l.2.<X2.9.:Xk.j Q.8.3Xi ;X9.a..Xj.A.d.3Xm k.%Xx..X| ).Y 9X                            ",
"                                wX7XY S.Y 9.n.E.6.$Xd.:X+ *X^ <Xf.I.c.a. Xj.t.2X%Xz R.E.|.yXT ).} @X6X                          ",
"                                  eXz.F.] v 5X~ l.W.4.0X: *Xi v.v.g.a.f.q.Q.Q 8XU.0.v.XXm.yX1.).B.|.9X                          ",
"                                    6X/ J.p M.2.:X9.4.8X6 Q.;.c.i.;.v XXp '.;.8XR.l.b.:Xw.yX4.).N.+XqX                          ",
"                                    yXQ (.I 0.e.3Xc 9.8X7 4.n.R.~ W.! 3Xa '.8.8XXXs.s.:Xq.yXW ).] 5X                            ",
"                                    yX^ (.I s.w.3XW d.8X6.yXs.2X;.yX2.8Xs 5.b 8X<X2.s.8. X+X{ /.Q rX                            ",
"                                    yXQ /.t.yX6.8X8.d.8X;.yXs.XX3.yX;.8X6.rX0.,XoXw.qX$XrX~ ^.u.R.eX                            ",
"                                    wX/ ^.a.yX! 8X4.a.8X1.yX#Xs.@XyX3.8X3.tX>X0.0.6X9X9XeX( S.5.eX                              ",
"                                  $X6X{ ^.p.yX,.8X! W <X0.yX6XrXrX#Xc.R.m.eX9XyXeX6X    eX|.l.eX7X                              ",
"                                    yXQ !.p.yX! %X6.|.1.5X6X    9X>X! 0.yX                qX9X                                  ",
"                                    eX@XU m.yX Xe.6XeXeX9X        rXrXrX                                                        ",
"                                      eXyXrX>XeXeX6X                                                                            ",
"                                                                                                                                ",
"                                                                                                                                ",
"                                                                                                                                ",
"                                                                                                                                ",
"                                                                                                                                ",
"                                                                                                                                ",
"                                                                                                                                ",
"                                                                                                                                ",
"                                                                                                                                ",
"                                                                                                                                ",
"                                                                                                                                ",
"                                                                                                                                ",
"                                                                                                                                ",
"                                                                                                                                ",
"                                                                                                                                ",
"                                                                                                                                "
};
