/* XPM */
static char *medusa21690885645[] = {
/* columns rows colors chars-per-pixel */
"64 64 218 2 ",
"   c None",
".  c #291C1D",
"X  c #3E2D2D",
"o  c #362627",
"O  c #3F3333",
"+  c #452829",
"@  c #493838",
"#  c #5B3C3C",
"$  c #563839",
"%  c #5F2F2E",
"&  c #643D3D",
"*  c #673838",
"=  c #733C3C",
"-  c #72413F",
";  c #7C3F40",
":  c #4C4544",
">  c #554545",
",  c #5A4343",
"<  c #544C4C",
"1  c #5D4B4C",
"2  c #595453",
"3  c #564F50",
"4  c #644344",
"5  c #694545",
"6  c #6A4748",
"7  c #614C4C",
"8  c #6D4B4B",
"9  c #734544",
"0  c #7A4444",
"q  c #734B4C",
"w  c #7C4A48",
"e  c #645454",
"r  c #635B5B",
"t  c #6D5B5B",
"y  c #6A5253",
"u  c #715454",
"i  c #7B5354",
"p  c #725C5C",
"a  c #7D5B5B",
"s  c #755050",
"d  c #6A605F",
"f  c #775F60",
"g  c #6C6363",
"h  c #6A6865",
"j  c #746B6B",
"k  c #796867",
"l  c #767271",
"z  c #7B7474",
"x  c #7F7B7B",
"c  c #7E6F70",
"v  c #854343",
"b  c #854949",
"n  c #8E4A4A",
"m  c #8C4747",
"M  c #924B4B",
"N  c #9A4E4E",
"B  c #815556",
"V  c #845B5C",
"C  c #8A5B5B",
"Z  c #885757",
"A  c #9C5452",
"S  c #9E4F51",
"D  c #A35354",
"F  c #AA5657",
"G  c #B35B5C",
"H  c #BB5E5F",
"J  c #836565",
"K  c #846B6B",
"L  c #8B6868",
"P  c #946363",
"I  c #9B6465",
"U  c #916A6B",
"Y  c #9B6B6B",
"T  c #9A676A",
"R  c #847474",
"E  c #8B7474",
"W  c #847C7C",
"Q  c #8B7B7B",
"!  c #8C7878",
"~  c #917374",
"^  c #927B7B",
"/  c #9B7C7C",
"(  c #977676",
")  c #9E706F",
"_  c #A56E6E",
"`  c #A47272",
"'  c #AD7474",
"]  c #A37B7A",
"[  c #B17675",
"{  c #B37A7A",
"}  c #BB7E7D",
"|  c #B27877",
" . c #A06F70",
".. c #C26363",
"X. c #CE6A6A",
"o. c #C86463",
"O. c #D36D6D",
"+. c #DB6D6D",
"@. c #D9706E",
"#. c #D96F70",
"$. c #DD7171",
"%. c #E37372",
"&. c #EC7877",
"*. c #EB7878",
"=. c #F37B7B",
"-. c #FF7F7E",
";. c #FE807F",
":. c #8A7F80",
">. c #FE7F80",
",. c #858182",
"<. c #8B8384",
"1. c #8D8989",
"2. c #8D8887",
"3. c #938483",
"4. c #9C8384",
"5. c #958886",
"6. c #938A8B",
"7. c #9A8B8B",
"8. c #969393",
"9. c #9B9594",
"0. c #9D9A9A",
"q. c #9A9798",
"w. c #AD8D8D",
"e. c #A58988",
"r. c #BC8283",
"t. c #A39393",
"y. c #A29D9D",
"u. c #AC9C9B",
"i. c #A59799",
"p. c #BC9695",
"a. c #B19D9C",
"s. c #BE9999",
"d. c #B69394",
"f. c #A98F90",
"g. c #B09FA1",
"h. c #A6A3A3",
"j. c #AAA4A4",
"k. c #ADABAB",
"l. c #ABA8A6",
"z. c #B4A3A3",
"x. c #B2ACAC",
"c. c #BDAAAB",
"v. c #B9A6A5",
"b. c #B6B3B3",
"n. c #BDBBBB",
"m. c #B2B1AF",
"M. c #C38484",
"N. c #CC8A89",
"B. c #C98888",
"V. c #D38D8D",
"C. c #C39D9D",
"Z. c #CA9693",
"A. c #D49292",
"S. c #DD9493",
"D. c #D29D9F",
"F. c #D58F90",
"G. c #FD8181",
"H. c #F18D8C",
"J. c #E49A9A",
"K. c #EA9D9D",
"L. c #E29796",
"P. c #F99898",
"I. c #EFA09E",
"U. c #F1A19F",
"Y. c #CBA3A4",
"T. c #C1ADAE",
"R. c #DAA8A9",
"E. c #C4B2B1",
"W. c #C9B5B6",
"Q. c #C7BCBC",
"!. c #D2BDBE",
"~. c #C4AFB1",
"^. c #EFA1A1",
"/. c #E3A1A3",
"(. c #F3A3A2",
"). c #FDA9A7",
"_. c #FDA9A9",
"`. c #F9A8A9",
"'. c #EEB1B3",
"]. c #EABBBC",
"[. c #E1B5B4",
"{. c #FCB5B6",
"}. c #FCBCBD",
"|. c #FDB8B7",
" X c #C1BFC0",
".X c #FDBFC0",
"XX c #C5C3C4",
"oX c #CCCBCB",
"OX c #C9C5C7",
"+X c #D9C4C4",
"@X c #D4CBCC",
"#X c #D1CFD0",
"$X c #D4D2D2",
"%X c #DCDADA",
"&X c #D9D7D7",
"*X c #E3CDCC",
"=X c #FEC4C4",
"-X c #FFC8C7",
";X c #FEC9CA",
":X c #F8C5C6",
">X c #EAD3D2",
",X c #E9D7D8",
"<X c #F4DDDC",
"1X c #FADFDE",
"2X c #E8D0CF",
"3X c #F6E0DD",
"4X c #E5E4E4",
"5X c #EDECEC",
"6X c #E9E7E8",
"7X c #FDE4E4",
"8X c #F0EEEF",
"9X c #FBE3E4",
"0X c #F1EFF0",
"qX c #F4F3F3",
"wX c #F8F6F7",
"eX c #F9F7F8",
"rX c #FAF9F9",
"tX c #EFF0F0",
/* pixels */
"                                                                                                                                ",
"                                                                                                                                ",
"                                                                                                                                ",
"                                                                                                                                ",
"                                                                                                                                ",
"                                                                                                                                ",
"                                                                                                                                ",
"                                                                                                                                ",
"                                                                                                                                ",
"                                                                                                                                ",
"                                                                                                                                ",
"                                                                                                                                ",
"                                                                                                                                ",
"                                                                                                                                ",
"                                                                                                                                ",
"                                                                                                                                ",
"                                                                                                                                ",
"                                                  5XqXqXeXqXqXqXqXqXqXqXeXqXeXeX0X                                              ",
"                                            qXqXqX&Xl.z e # # & & = & # 1 e g 8.$XqXqX0X                                        ",
"                                        qX0Xn.g 4 n H +.&.G.G.G.G.G.-.-.=.=.%.o.M 4 l oXwXtX                                    ",
"                                    qX6X6.s A %.=.;.;.;.-.-.-.;.;.-.-.-.-.-.-.-.;.=.+.M p oXqX                                  ",
"                                qX0X6.q G =.>.-.-.-.;.;.-.-.-.-.-.-.-.-.-.-.-.-.;.-.-.;.+.0 8.wX5X                              ",
"                              qXoXe F =.>.-.>.-.-.-.-.-.-.-.-.-.-.-.-.-.-.>.*.N O.-.-.-.-.=.N W qX5X                            ",
"                          6XqXy.5 %.G.>.;.;.-.-.-.-.-.-.-.-.-.-.-.-.-.-.X.v 9 ` P.-.-.-.-.-.-.S <.qX                            ",
"                        5XqXz M =.-.A ; N O.=.>.>.-.-.-.-.-.-.-.-.;.H = C B.`._.P.;.;.-.-.-.-.=.= oXqX                          ",
"                      5X5Xj G -.-.-.H.S.[ C w m D o.=.>.-.-.-.-.;.D i /.}.}..X}.I $.-.-.-.-.-.-.$.d wX                          ",
"                      eXc G -.-.>.>.>.P._.{.{.}.R.) - =.-.-.-.-.=.= {.=X;X;X;X-X'.b =.-.-.-.-.-.;.5 5X                          ",
"                    qX#X= ;.>.>.-.>.>.w `..X-X;X=X=Xr.D -.-.-.-.%.Z =X;X;X;X;X;X=XT $.-.;.-.-.-.-.n %X                          ",
"                    qXz #.-.>.-.-.-.$.9 |.-X;X;X;X-X'.w ;.;.-.-.=.Z .X;X;X;X;X;X=XY o.-.-.-.-.-.-.n %XqX                        ",
"                    rX> G.-.-.-.-.-.+.w {.-X-X;X;X-X'.w ;.;.-.-.;.A D.=X;X;X;X-X}.9 %.-.-.-.-.-.-.9 5X                          ",
"                    eX> G.-.-.-.-.-.>.* /.=X-X-X-X=X{ D -.-.-.-.;.;.0 Z..X.X}.R.5 H >.-.-.-.-.-.X.g eX                          ",
"                    qXl #.G.-.-.;.-.-.$.% Z.}..X'.T b =.-.@.+.-.;.;.=.F - - = M *.>.>.-.-.-.-.O.> 6X5X                          ",
"                    qXoX= >.-.-.-.-.;.;.*.m * = v O.-.-.-.$.=.>.-.-.;.;.;.;.;.;.-.-.-.-.-.%.v r 4X0X                            ",
"                      eXW b &.-.-.-.-.;.;.;.;.-.;.G.G.>.>.G.=.%.O...G G ..X.@.@.X...N = + 3 oXeX8X                              ",
"                      4XeX Xl $ * = v v - v v v v = % + 4 , @ E E > 7.1.b.2.. P _ @ 4.L  .6X0X                                  ",
"                          0XrXeX6X$Xj.C F.V.Z @ } N.X ( ~ <.Q ;XC.< >X2.wX@X6 ).).1 5.^ ) 6X4X                                  ",
"                                8XrX~ U._.} 9 (.L.o y -Xy 3.! ;Xf.XXi.t.5Xl B._.F.j f.v. .m.qX                                  ",
"                                qXXX} ).(.6 ^.^., 3.C.;XK z.p =Xs.2 X 7 7 o 6 | i E.f.>XL L wX                                  ",
"                                eX,._.).{ C I 5 4 q u a J 2 t.t s M.(.(.(.).J._ # d 4.1X~ B.j.qX                                ",
"                                wX3.`.).C i C `._.(.K.L.| o , I I i q q s B | ^._.N.i k < } L eX                                ",
"                                qX@X' ).q [ 5 s a f t X - V I 6 | I._._._.J.4 @ I J.).B.@ ( { &X5X                              ",
"                                  eX4.K.i F.K.. t.v.k 5 N.a o a { S.(.(.J.} 1 R u.@ i C 3 E M.XXqX                              ",
"                                  qXl.A.$ _ ).S.Z P V.A.6 < q.u.> , p 1 j $ [.^ 7X,.1.3.Q./ ` 5X5X                              ",
"                                  qXh.M.p q S.K.J.r.a + R.R 9.+X~ ] *X<.oXd.].> 9Xl j.5.%X/ L eX                                ",
"                                  eX! u J w.> e . W +X4.:XW :.Q e.C.z.<.9.].d.h >XW u.3.Q.{ E qX                                ",
"                                qX#XY l w.( T.7X: E.>Xe.[.x E.d p.~ ! 9.3.;XQ 0.*Xt.6.u.8.V.E eX                                ",
"                                qX! >.h R.1 W.1X2 c.2X~ ].: >X,.4.^ W u.R ;X! 1.<Xi.W +Xj N.` #XqX                              ",
"                                rXJ :.: C.j c.>Xz g.3X3 Y.f 3XW k / j T.h ].3.,.7Xt.W >X,.( ).U 4XqX                            ",
"                                eXK K.@ C.y.t.2X9.<.9XW R s.!.+X@ ].c v.9.Y.w.W 7X6.5.>Xy.<.U.K.3.wX                            ",
"                                qXx.V.U d.y.2.<X<.k.+XW.3 ].:.7XK ].i.t.$Xp.p.E.7Xd v.+Xb.4X_ ).Y 6X                            ",
"                                  qXE J.J 3.$Xa.7.&Xt.<X@ :Xk *Xa.s.a.t. XC./ 3X XR E.W.OXrXR ).M.oX5X                          ",
"                                  qXQ.M.} p &XW T.m.<.1X> -Xr v.c.s.7.z.,.[.E 7XT.y.T.+Xb.rX2._.B.OXqX                          ",
"                                    qX~ (.u h.6.3X,.5.7X@ C.8.z.3.Q g 2Xe ].4.7XW.h.z.,X8.rX3._.} $X8X                          ",
"                                    eXE ).U 8.y.1Xj t.7Xl l.k.!.,.5X<.7Xe Y.3.7X*X0.i.*Xy.eXK _.T 5X                            ",
"                                    wXE ).L n.q.1XQ z.7X5.wXy.,X<.eX1.7Xj j.W 7X3X1.b.6.4Xm.N.K.3.wX                            ",
"                                    wXE ).e.eX6.9X7.u.7X:.wXh.i.6.eX:.7X1.wXj.Q.c.b.qXqXqX^ _.` $XqX                            ",
"                                    5X] (.f.rXW 7X<.5.7X2.rXqX#X8XqX5.<X1.qX8Xx.k.qX    qXE _ x.qX                              ",
"                                    0X] U.t.rX,.7XW R c.h.eX    qX#Xc.i.&X5X  qXqX      0X4X$XqX                                ",
"                                    rX<.F.t.wXW a.l.5XOXeX4X      8X,. XqX                  6X                                  ",
"                                    5X0X8.%XqXqX%XwX5X0X          qXrXqX                                                        ",
"                                      5XeXqX    qX                                                                              ",
"                                                                                                                                ",
"                                                                                                                                ",
"                                                                                                                                "
};
