/* XPM */
static char *exit1686816810[] = {
/* columns rows colors chars-per-pixel */
"64 64 98 2 ",
"   c None",
".  c #000000",
"X  c #060906",
"o  c #060B08",
"O  c #0A0D0C",
"+  c #0A100D",
"@  c #0E1512",
"#  c #131313",
"$  c #121915",
"%  c #161D1A",
"&  c gray11",
"*  c #18201C",
"=  c #1D2522",
"-  c #1F2925",
";  c #242424",
":  c #212B26",
">  c #232D29",
",  c #2C2C2C",
"<  c #24302B",
"1  c #29342F",
"2  c #2A3530",
"3  c gray21",
"4  c gray22",
"5  c #34423C",
"6  c #3E4F47",
"7  c gray25",
"8  c #41524A",
"9  c #465951",
"0  c #4A5D55",
"q  c gray33",
"w  c gray35",
"e  c #4F635A",
"r  c #52665D",
"t  c #556A62",
"y  c #5D746A",
"u  c gray38",
"i  c #6D6D6D",
"p  c #60776D",
"a  c #61796F",
"s  c #657D72",
"d  c #757575",
"f  c #7B7B7B",
"g  c #668075",
"h  c #6B8478",
"j  c #6F8A7E",
"k  c #708B7F",
"l  c #718C81",
"z  c #779488",
"x  c #79968A",
"c  c #7C998D",
"v  c #7F9E91",
"b  c #838383",
"n  c #8E8E8E",
"m  c #9C9C9C",
"M  c #83A195",
"N  c #87A598",
"B  c #87A89A",
"V  c #8BAC9E",
"C  c #8DAEA0",
"Z  c #8EB0A1",
"A  c #92B5A6",
"S  c #94B7A9",
"D  c #97B9AA",
"F  c #99BCAD",
"G  c #A0A0A0",
"H  c #ACACAC",
"J  c #B4B4B4",
"K  c gray73",
"L  c #9EC3B3",
"P  c #A1C6B6",
"I  c #A5CCBC",
"U  c #A8CFBE",
"Y  c #ABD4C3",
"T  c #B2DDCB",
"R  c #B6E0CE",
"E  c #B8E2CF",
"W  c #BBE6D3",
"Q  c #BEE9D6",
"!  c #BFECD9",
"~  c #C3C3C3",
"^  c #D2D2D2",
"/  c #DFDFDF",
"(  c #C3EFDC",
")  c #C3F2DE",
"_  c #C6F3E0",
"`  c #C9F6E2",
"'  c #C4FAE4",
"]  c #CCFBE7",
"[  c #CEFBE8",
"{  c #D3FCEA",
"}  c #DBFCED",
"|  c #E4E4E4",
" . c #EAEAEA",
".. c #E3FDF1",
"X. c #EDFEF6",
"o. c #F3F3F3",
"O. c #F4FEF9",
"+. c #FFFFFF",
/* pixels */
"                                                                                                                                ",
"                                                                                                                                ",
"                                                                                                                                ",
"                                                        . . . . . . . . . . . . . . . . . .                                     ",
"                                . . . . . . . . . . . . . . . . . . . . . . . . . . . . . . . .                                 ",
"                        . . . . . . . . . . . . . . . . . . . . . . . . . . X o . . . . . . . . .                               ",
"                      . . . . . . . . o % > 5 8 r a h z v N Z A L I Y T Q ) ` ' ( Q Q ( Y B < . . .                             ",
"                    . . . 5 9 s B Y ! ' ] ' ' ' ' ' ' ' ' ' ' ] ] ] { { ] ' ] ] ] ] ] ] ] [ ] : . .                             ",
"                    . . + ] ] ] ] ' { X.O.O...{ } } ....X.X.O.O.O.+.+.+.O...' ' ] ] ] ] ] ] ] F . .                             ",
"                    . . * ] ] ] ' ..+.+.+.+.+.+.+.+.+.+.+.+.+.+.+.+.+.+.+.+.O.] ] ] ] ] ] ] ] ` . . .                           ",
"                    . . : ] ] ' } +.+.+.+.+.+.+.+.+.+.+.+.+.+.+.+. .K  .+.+.+.O.' ] ] ] ] ] ] ] 2 . .                           ",
"                    . . > ] ] ' O.+.+.+.+.+.+.+.+.+.+.+.+.+.+.+.m X . . ^ +.+.+...' ] ] ] ] ] ] 0 . .                           ",
"                    . . = ] ' { +.+.+.+.+.+.+.+.+.+.+.+./ +.+.J . . . . n +.+.+.O.' ] ] ] ] ] ] a . .                           ",
"                    . . $ ] ' } +.+.+.J q ~ +.+.+.+.+.d . f +.& . . 7 d  .+.+.+.+.{ ' ] ] ] ] ] x . .                           ",
"                    . . X ] ' } +.+.+.& . & +.+.+.+.+., . & ^ . . 3 +.+.+.+.+.+.+.{ ' ] ] ] ] ] C . .                           ",
"                    . . . _ ] ] +.+.+.4 . # +.w $ m +.f . & m . . m +.+.+.+.+.+.+.{ ] ] ] ] ] ] L . .                           ",
"                    . . . T ] ' O.+.+.f . O u . . . m i . O H . . i +.+.+.+.+.+.+.] ] ] ] ] ] ] Y . . .                         ",
"                      . . D ] ' X.+.+.^ . . . . . . . . . . o., . . b f ; n +.+.O.] ' ] ] ] ] ] E . . .                         ",
"                      . . M ] ' ..+.+.+., . . . . . . . . d +.J . . . . . . +.+.+.] ] ] ] ] { ] ` X . .                         ",
"                      . . h ] ' } +.+.+./ # . . J | i w G +.+.+.m X . . . b +.+.O.] ] ] ] ] ] ] ] * . .                         ",
"                      . . e ] ' { +.+.+.+.o.J ^ +.+.+.+.+.+.+.+.+. .G m ^ +.+.+.X.' ] ] ] ] ] ] ] 1 . .                         ",
"                      . . 5 ] ] ] O.+.+.+.+.+.+.+.+.+.+.+.+.+.+.+.+.+.+.+.+.+.+...' ] ] ] ] ] ] [ 5 . .                         ",
"                      . . * ] ] ' } +.+.+.+.+.+.+.+.+.+.+.+.+.+.+.+.+.+.+.+.+.O.] ] ] ] ] ] ] ] ] 6 . .                         ",
"                      . . X ] ] ] ' X.+.+.+.+.+.+.+.+.+.+.+.+.+.+.+.+.+.+.+.O.] ' ] ] ] ] ] ] ] ] 6 . .                         ",
"                      . . . W ] ] ] ' X.+.+.+.+.+.+.+.+.+.+.+.+.+.O.O.O.O...' ' ] ] ] ] ] ] ] ] ] 5 . .                         ",
"                      . . . Y ] ] ] ` ' { X.O.O.X.X...} } } } { { { ] ' ' ' ] ] ] ] ] ] ] ] ] ] ] 2 . .                         ",
"                        . . L ] ] ] ] ] ' ' ' ] ' ' ' ' ' ' ' ' ] ] ] ` ] ] ] ] ] ] ] ] ] ] ] ] ] = . .                         ",
"                        . . S ] ] ] ] ] ] ] ] ] ] ] ] ] [ [ [ ] ] ] ] ] ] ] ] ] ] ] ] ] ] ] ] ] [ $ . .                         ",
"                        . . B ] ] ] ] ] ] ] ] ] ] ] ] ] ] ] ] ] ] ] ] ] ] ] ] ] ] ] ] ] ] ] ] ] ` X . .                         ",
"                        . . c ] ] ] ] ] ] ] ] ] ] ] ] ] ] ] ] ] ] ] ] ] ] ] ] ] ] ] j 8 R ] ] ] Q . . .                         ",
"                        . . j ] ] ] ] ] ] ] ] ] ] ] ] ] ] ] ] ] ] ] ] ] ] ] ] ] ] T . . 8 ] ] ] T . . .                         ",
"                        . . p ] ] ] ] ] ] ] ] [ ] ] ] ] ] ] ] ] ] ] ] ] ] ] ] ] ] L . . . ) ] [ Y . . .                         ",
"                        . . 0 ] ] ] ] ] ] ] ] ] ] ] ] ] ] ] ] ] ] [ ] ] ] ] ] ] ] L . . . U ] ] P . . .                         ",
"                        . . 5 ] ] ] ] ] [ ] ] ] ] ] ] ] ] { ] ] ] ] ] ] ] ] ] ] ] ! . . . U ] ] D . .                           ",
"                        . . - ] ] ] ] ] ] ] ] ] ] ] ] ] ] ] ] ] ] ] ] ] ] ] ] [ ] ] y . $ ` ] ] V . .                           ",
"                        . . O ] ] ] ] ] ] ] ] ] ] ] ] ] ] ] ] ] ] ] ] ] ] ] ] ] ] [ [ L Q ] ] ] c . .                           ",
"                        . . . Q ] [ ] ] ] ] ] ] ] ] ] ] ] ] ] ] ] ] ] ] ] ] ] ] [ ] ] ] ] ] ] ] j . .                           ",
"                        . . . I ] ] ] ] ] ] ] ] ] ] ] ] ] ] ] ] ] ] ] ] ] ] ] ] ] ] ] ] ] ] ] ] g . .                           ",
"                          . . V [ [ ] ] ] ] ] ] ] ] ] ] ] ] ] ] ] ] ] ] ] ] ] ] ] ] ] ] ] ] ] ] y . .                           ",
"                          . . j ] ] ] ] ] ] ] ] ] ] ] ] ] ] ] ] ] ] ] [ ] ] ] ] ] ] ] ] ] ] ] ] t . .                           ",
"                          . . t ] ] ] ] ] ] ] ] ] ] ] ] ] ] ] ] ] ] ] ] ] ] ] ] ] ] ] ] ] ] ] ] t . .                           ",
"                          . . 5 ] ] ] ] ] ] ] ] ] ] ] ] ] ] ] ] ] ] ] ] ] ] ] ] ] ] ] ] ] ] [ ] t . .                           ",
"                          . . = ] ] ] ] ] ] ] ] ] ] ] ] ] ] ] ] ] ] [ ] ] [ ] ] [ ] ] ] ] ] ] ] t . .                           ",
"                          . . . _ ] ] ] ] ] ] ] ] ] ] ] ] ] ] ] ] ] ] ] ] ] ] ] ] ] ] ] ] ] ] ] y . .                           ",
"                            . . Y ] ] ] ] ] ] ] ] ] ] ] ] ] ] ] ] ] ] [ ] ] ] ] ] ] ] ] ] ] ] ] s . .                           ",
"                            . . F ] ] ] ] ] ] ] ] ] ] ] ] ] ] ] ] ] ] ] ] ] ] ] ] ] ] ] ] ] ] ] h . .                           ",
"                            . . x ] ] ] ] ] ] ] ] ] ] ] ] ] ] ] ] ] ] ] ] ] ] ] ] ] ] ] ] ] ] ] l . .                           ",
"                            . . t ] ] ] ] ] ] ] ] ] ] ] ] ] { ] ] ] ] ] ] ] ] ] ] ] ] ] ] [ ] ] c . .                           ",
"                            . . 5 ] ] ] ] ] ] ] ] ] ] ] ] ] ] ] ] ] ] ] ] ] ] ] ] ] ] ] ] ] ] ] M . .                           ",
"                            . . X ` ] ] ] ] ] ] ] ] ] ] ] ] ] ] ] ] ] ] ] ] [ ] ] ] ] [ ] ] ] ] V . .                           ",
"                            . . . P ] ] ] ] ] ] ] ] ] ] ] ] ] ] ] ] ] ] ] ] ] ] ] ] ] ] ] ] ] ] S . .                           ",
"                              . . j ] ] ] ] ] ] ] ] ] ] ] ] ] ] ] ] ] ] ] ] ] ] ] ] ] ] ] ] ] ] I . . .                         ",
"                              . . 5 ] ] ] ] ] ] ] ] ] ] ] ] ] ] ] ] ] ] ] ] ] ] ] ] ] ] ] ] ] ] W . . .                         ",
"                              O . . _ ] ] ] ] ] ] ] ] ] ] ] ] ] ] ] ] ] ] ] ] ] ] ] ] ] ] ] [ ] ] @ . .                         ",
"                              - . . F ] ] ] ] ] ] ] ] ] ] ] ] ] ] ] [ ] ] ] ] ] ] ] ] ] ] ] ] ] ] > . .                         ",
"                                . . 8 F A C A F P I Y Y U P P F L L I Y T E ! ( ` ] ] ] ] ] ] ` Y . . .                         ",
"                                . . . . . . . . . . . . . . . . . . . . . . . X O @ % - > < = O . . . .                         ",
"                                  . . . . . . . . . . . . . . . . . . . . . . . . . . . . . . . . . .                           ",
"                                      . . . . . . . . . . . . . . . . . . . . . . . . . . . . . . .                             ",
"                                                                                                                                ",
"                                                                                                                                ",
"                                                                                                                                ",
"                                                                                                                                ",
"                                                                                                                                "
};
