/* XPM */
static char *floor1686816822[] = {
/* columns rows colors chars-per-pixel */
"64 64 111 2 ",
"   c #A95E42",
".  c #96704B",
"X  c #99744F",
"o  c #9B7652",
"O  c #9E7956",
"+  c #9F7C59",
"@  c #AC6247",
"#  c #AF674B",
"$  c #B0684E",
"%  c #B46D53",
"&  c #A37E5D",
"*  c #B47055",
"=  c #B9775E",
"-  c #917F6F",
";  c #BB7A61",
":  c #D97B59",
">  c #8E8175",
",  c #93867A",
"<  c #A68260",
"1  c #A88666",
"2  c #A98768",
"3  c #AD8B6C",
"4  c #BF8269",
"5  c #B49375",
"6  c #B79779",
"7  c #BA9A7E",
"8  c #C2866E",
"9  c #DF896A",
"0  c #C58C75",
"q  c #C39B78",
"w  c #E18D6F",
"e  c #E08F71",
"r  c #E3977B",
"t  c #C6A07E",
"y  c #9C8780",
"u  c #9F9C99",
"i  c #BC9C81",
"p  c #AE9D90",
"a  c #ABA19B",
"s  c #B6AA9F",
"d  c #AFAAA4",
"f  c #B7AEA4",
"g  c #BCB4AD",
"h  c #CE9B86",
"j  c #E59D82",
"k  c #C9A382",
"l  c #C2A48A",
"z  c #C6A98F",
"x  c #CFAD8E",
"c  c #D3A48E",
"v  c #C8AC91",
"b  c #D9AF9B",
"n  c #CCB197",
"m  c #CDB299",
"M  c #D3B294",
"N  c #D3B59D",
"B  c #DAB39D",
"V  c #D7B89D",
"C  c #D9BA9F",
"Z  c #E7A288",
"A  c #FAA98C",
"S  c #EAAF95",
"D  c #FBAE92",
"F  c #EBB097",
"G  c #ECB39B",
"H  c #FBB195",
"J  c #D4B7A0",
"K  c #DEB5A2",
"L  c #D7BEA7",
"P  c #DCBCA3",
"I  c #D8BEA9",
"U  c #E0B9A6",
"Y  c #EEBBA3",
"T  c #E2BCAA",
"R  c #FCBCA3",
"E  c #F0BFAA",
"W  c #DEC0A7",
"Q  c #DDC2AA",
"!  c #DFC6B1",
"~  c #DFC8B4",
"^  c #E2C4AD",
"/  c #FCC4AD",
"(  c #E5C2B0",
")  c #E8C6B5",
"_  c #E3C9B2",
"`  c #E4CDB9",
"'  c #E9CDB9",
"]  c #F2C6B2",
"[  c #FBC5B0",
"{  c #F3C9B5",
"}  c #F4CEBA",
"|  c #E7D1BD",
" . c #EAD2BD",
".. c #F5D1BE",
"X. c #FDD2BF",
"o. c #ECD5C2",
"O. c #EED9C5",
"+. c #EEDBC9",
"@. c #F3D5C3",
"#. c #FDD5C3",
"$. c #F1DAC6",
"%. c #FBD9C6",
"&. c #F3DDCB",
"*. c #F9DECC",
"=. c #F6DFD0",
"-. c #F4E0CE",
";. c #FCE0CE",
":. c #F3E2D3",
">. c #FAE5D4",
",. c #FCE8D7",
"<. c #FCEBDB",
/* pixels */
"d g g g g g g f g g g d g g g g g g g g g f g f g g g g g g g g f g g g d g g g g g g f g g g g g d g g s p p a p p p f g g g d ",
"d :.:.:.:.:.:.:.:.:.:.:.:.:.:.:.:.:.:.:.:.:.:.:.:.:.:.:.:.:.:.:.:.:.:.:.:.:.:.:.:.:.:.:.:.:.:.:.:.:.:.:.O.N m N N V O.:.:.:.:.d ",
"g <.<.<.<.<.<.<.<.<.<.<.<.<.<.<.<.<.<.<.<.<.<.<.<.<.<.<.<.<.<.<.<.<.<.<.<.<.<.<.<.<.<.<.<.<.<.<.<.<.<.<.<. .C V _ ,.<.<.<.<.<.g ",
"g <.<...G >.<.<.<.<.<.<.<.<.<.<.<.<.<.<.<.<.<./ ] <.<.<.<.<.<.<.<.<.<.<.<.<.<.<.<.<.<.<.<.<.<.<.<.<.<.<.<.<.-.>.<.<.<.<.<.<.<.g ",
"g <.<.E : { <.<.<.<.<.<.<.~ +.<.<.<.<.<.<.<.<.H A <.<.<.<.<.<.<.<.<.<.<.<.<.<.<.<.<.<.<.<.<.<.<.<.<.<.<.<.<.<.<.<.<.<.<.<.<.<.g ",
"g <.<.<.G %.<.<.<.<.<.<.<.5 p <.<.<.<.<.<.<.<.X...<.<.<.<.<.<.<.<.<.<.<.<.<.<.<.<.<.<.<.<.<.<.<.<.<.<.<.<.<.<.<.<.<.<.<.<.<.<.g ",
"g <.<.<.<.<.<.<.<.<.<.<.<.-.O.<.<.<.<.<.<.<.<.<.<.<.<.<.<.<.<.<.<.<.<.<.<.<.<.<.<.<.<.<.<.<.<.<.<.<.<.<.<.<.<.<.<.<.<.<.<.<.<.g ",
"g <.<.<.<.<.<.<.<.<.<.<.<.<.<.<.<.<.<.<.<.<.<.<.<.<.<.<.<.<.:.O.+.<.<.<.<.<.<.~ | <.<.<.<.<.<.<.<.<.:.S / <.<.<.<.<.<.<.<.<.<.g ",
"g <.<.<.<.<.<.<.<.<.<.<.<.<.<.<.<.<.<.<.<.<.<.<.<.<.<.<.<.O.C C J _ <.<.<.<.<.n W <.<.<.<.<.<.<.<.<.[ A A *.<.<.<.<.<.<.<.<.<.g ",
"g <.<.<.<.<.<.<.<.<.<.<.<.<.<.<.<.<.<.<.<.<.<.<.<.<.<.>.^ C C C J L O.<.<.<.<.<.<.<.<.<.<.<.<.<.<.<.R A A R <.<.<.<.<.<.<.<.<.g ",
"g <.<.<.<.<.<.<.<.<.<.<.<.<.<.<.<.<.<.<.<.<.<.<.<.<.,.W C C C C C C  .<.<.<.<.<.<.<.<.<.<.<.<.<.<.<.X.D D #.<.<.<.<.<.<.<.<.<.g ",
"J <.<.<.<.<.<.<.<.<.<.<.<.<.<.<.<.<.<.<.<.<.<.<.<.<.$.C C C C P C C ` <.<.<.<.<.<.<.<.<.<.<.<.<.<.<.<.<.<.<.<.<.<.<.<.<.<.<.<.g ",
"g <.<.<.<.<.<.<.<.<.<.<.<.<.<.<.<.<.<.<.<.<.<.<.<.<. .C C C C C C C _ <.<.<.<.<.<.<.<.<.<.<.<.<.<.<.<.<.<.<.<.<.<.<.<.<.<.<.<.g ",
"g <.<.<.<.<.<.<.<.<.-.Q | <.<.<.<.<.<.<.<.<.<.<.<.<. .C C C C C C C  .<.<.<.<.<.<.<.<.<.<.<.<.<.<.<.<.<.<.<.<.<.<.<.<.<.<.<.<.g ",
"g <.<.<.<.<.<.<.<.-.t q q _ <.<.<.<.<.<.<.<.<.<.<.<.O.C C C C C C P -.<.<.<.<.<.<.<.<.-.>.<.<.<.<.<.<.<.<.<.<.<.<.<.&.' <.<.<.g ",
"g <.<.<.<.<.<.<.<.P q q q q -.<.<.<.<.<.<.<.<.<.<.<.<. .C C C J C _ <.<.<.<.<.<.<.<.<.@ * <.<.<.<.<.<.<.<.<.<.<.<.<.=   b :.<.g ",
"g <.<.<.<.<.<.<.<.P q q q q o.<.<.<.<.<.<.<.<.<.<.<.<.<.>.+.o.' O.<.<.<.<.<.<.<.<.<.@.  $ <.<.<.<.<.<.<.<.<.<.<.<.<.8   K >.<.g ",
"g <.<.<.<.<.<.<.<.&.q q q k ,.<.<.<.<.<.<.<.<.<.<.<.<.<.<.<.<.<.<.<.<.<.<.<.<.<.<.<.<.4 c <.<.<.<.<.<.<.<.<.<.<.<.<.*.' <.<.<.g ",
"g <.<.<.<.<.<.<.<.<.&.J C &.<.<.<.<.<.<.<.<.<.<.<.<.<.<.<.<.<.<.<.<.<.<.<.<.<.<.<.<.<.<.<.<.<.<.<.<.<.<.<.<.<.<.<.<.<.<.<.<.<.g ",
"g <.<.<.<.<.<.<.<.<.<.<.<.<.<.<.<.<.R A %.<.<.<.<.<.<.<.<.<.<.<.<.<.<.<.<.<.<.<.<.<.<.<.<.<.<.<.<.<.<.<.<.<.<.<.<.<.<.<.<.<.<.g ",
"g <.<.<.<.<.<.<.<.<.<.<.<.<.<.<.<.#.A A R <.<.<.<.<.<.<.<.<.<.<.<.<.<.<.<.<.<.<.<.<.<.<.<.<.<.<.<.<.<.<.<.<.<.<.<.<.<.<.<.<.<.g ",
"g <.<.<.<.<.<.<.<.<.<.<.<.<.<.<.<.>.H A / <.<.<.<.<.<.&.T <.<.<.<.<.<.<.<.<.<.<.<.<.<.<.<.<.<.<.<.<.<.<.<.<.<.<.<.<.<.<.<.<.<.g ",
"g <.<.<.<.<.<.<.<.<.<.<.<.<.<.<.<.<.,.#.,.<.<.<.<.<.<.c   T <.<.<.<.<.<.<.<.<.<.<.<.<.<.<.<.<.<.<.<.<.<.<.<.<.<.<.<.<.<.<.<.<.g ",
"g <.<.<.<.<.<.<.<.<.<.<.<.<.<.<.<.<.<.<.<.<.<.<.<.<.<.T   ( <.<.<.<.<.<.<.<.<.<.<.<.<.<.<.<.O.V x ^ &.<.<.<.<.<.<.<.<.<.<.<.<.g ",
"g <.<.| +.<.<.<.<.<.<.<.<.<.<.<.<.<.<.<.<.<.<.<.<.<.<.<.<.<.<.<.<.<.<.<.<.$.>.<.<.<.<.<.<.W q q q q q &.<.<.<.<.<.<.<.<.<.<.<.g ",
"I <.<.- ~ <.<.<.<.<.<.<.<.<.<.<.<.<.<.<.<.<.<.<.<.<.<.<.<.<.<.<.<.<.<.<.Y : : Z >.<.<.<.-.q q q q q q B <.<.<.<.<.<.<.#.} &.<.g ",
"g <.<.o.<.<.<.<.<.<.<.<.<.<.<.<.<.<.<.<.<.<.<.<.<.<.<.<.<.<.<.<.<.<.<.<.Z : : : ..<.<.<. .q q q q q q v <.<.<.<.<.<.<.r : S <.g ",
"g <.<.<.<.<.<.<.<.<.<.<.<.<.<.<.<.<.<.<.<.<.<.<.<.<.<.<.<.<.<.<.<.<.<.<.F : : e <.<.<.<.,.q q q q q i J <.<.<.<.<.<.<.} Y } <.g ",
"g <.<.<.<.<.<.<.<.<.<.<.:.&.<.<.<.<.<.<.<.<.<.<.<.<.<.<.<.<.<.<.<.<.<.<.*.: 9 >.<.<.<.<.<.C q q q q q ^ <.<.<.<.<.<.<.<.,.<.<.g ",
"g <.<.<.<.<.<.<.<.<.<.<.% # <.<.<.<.<.<.<.<.<.<.<.<.<.<.<.<.<.<.<.<.<.<.<.%.*.<.<.<.<.<.<.,.q q q q q &.<.<.<.<.<.<.<.<.<.<.<.m ",
"g <.<.<.<.<.<.<.<.<.<.<.#   >.<.<.<.<.<.<.<.<.<.<.<.<.<.<.<.<.<.<.<.<.<.<.<.<.<.<.<.<.<.<.<. .q q q M <.<.<.<.<.<.<.<.<.<.<.<.g ",
"g <.<.<.<.<.<.<.<.<.<.<.o.' <.<.<.<.<.<.<.>._ ` >.<.<.<.<.<.<.<.<.<.<.<.<.<.<.<.<.<.<.<.<.<.<.-._ _ <.<.<.<.<.<.<.<.<.<.<.<.<.g ",
"g <.<.<.<.<.<.<.<.<.<.<.<.<.<.<.<.<.<.<.` X . . . v <.<.<.<.<.<.<.<.<.<.<.<.<.<.<.<.<.<.<.<.<.<.<.<.<.<.<.<.<.<.<.<.<.<.<.<.<.g ",
"g <.<.<.<.<.<.<.<.<.<.<.<.<.<.<.<.<.<.<.& . . . . . m <.<.<.<.<.<.<.<.<.<.<.<.<.<.<.<.<.<.<.<.<.<.<.<.<.<.<.<.<.<.<.<.<.<.<.<.g ",
"g <.<.<.<.<.<.<.<.<.<.<.<.<.<.<.<.<.<.o.. . . . . . < <.<.<.<.<.<.<.<.<.<.<.<.<.<.<.<.<.<.<.<.<.<.<.<.<.<.<.<.<.<.<.<.<.<.<.<.g ",
"L <.<.<.<.<.<.<.<.<.<.<.<.<.<.<.<.<.<.O.. . . . . . X >.<.<.<.<.<.<.<.<.<.<.<.<.<.<.<.<.<.<.<.<.<.<.<.<.<.<.<.<.<.<.<.<.<.<.<.g ",
"g <.<.<.<.<.<.<.<.<.<.<.<.<.<.<.<.<.<.o.. . . . . . < <.<.<.<.<.<.<.<.<.<.<.<.<.<.<.<.<.*.#.<.<.<.<.<.<.<.<.<.<.<.<.<.<.<.<.<.g ",
"g <.<.<.<.<.<.<.<.<.<.<.<.<.<.<.<.<.<.+.. . . . . . 6 <.<.<.<.<.<.<.<.<.<.<.<.<.<.<.<.<.j : Y <.<.<.<.<.<.<.<.<.<.<.<.<.<.<.<.g ",
"g <.<.<.<.<.<.<.<.<.<.<.<.<.<.<.<.<.<.<.6 . . . . . Q <.<.<.<.<.<.<.<.<.<.<.<.<.<.<.<.<.e : e <.<.<.<.<.<.<.<.<.<.<.<.<.<.<.<.g ",
"g <.<.<.<.<.<.<.<.<.<.<.<.<.<.<.<.<.<.<.<.z & + 2 ~ <.<.<.<.<.<.<.<.<.<.$.$.<.<.<.<.<.<.r : Y <.<.<.<.<.<.l o 3 n =.<.<.<.<.<.g ",
"g <.<.<.<.<.<.+.M P >.<.<.<.<.<.<.<.<.<.<.<.<.<.<.<.<.<.<.<.<.<.<.<.<.<.0   <.<.<.<.<.<.=.*.<.<.<.<.<.<.m . . . . O &.<.<.<.<.g ",
"g <.<.<.<.<.-.7 q q k <.<.<.<.<.<.<.<.<.<.<.<.<.<.<.<.<.<.<.<.<.<.<.<.<.U 0 <.<.<.<.<.<.<.<.<.<.<.<.<.<.1 . . . . . 2 >.<.<.<.g ",
"g <.<.<.<.<.V q q q q W <.<.<.<.<.<.<.<.<.<.<.<.<.<.<.<.<.<.<.<.<.<.<.<.<.<.<.<.<.<.<.<.<.<.<.<.<.<.<.+.. . . . . . . 3 <.<.<.g ",
"g <.<.<.<.o.q q q q q q -.<.<.<.<.<.<.<.<.<.<.<.<.<.<.<.<.<.<.<.<.<.<.<.<.<.<.<.<.<.<.<.<.<.<.<.<.<.<.O.. . . . . . . . ~ <.<.g ",
"g <.<.<.<.W q q q q q q ` <.<.<.<.<.<.<.<.<.<.<.<.<.<.<.<.<.<.<.<.<.<.<.<.<.<.<.<.<.<.<.<.<.<.<.<.<.<.<.< . . . . . . . n =.<.g ",
"g <.<.<.<. .q q q q q q &.<.<.<.<.<.<.<.<.<.<.<.<.<.<.<.<.<.<.<.<.<.<.<.<.<.<.<.<.<.<.<.<.<.<.<.<.<.<.<.l . . . . . . . m :.<.g ",
"g <.<.<.<.<.| q q q q ! <.<.<.<.<.<.<.<.<.<.<.<.<.<.<.<.<.<.<.<.<.<.<.<.<.<.<.<.<.<.<.<.<.<.<.<.<.<.<.<.Q . . . . . . . &.<.<.g ",
"J <.<.<.<.<.<.&.Q _ &.<.<.<.<.<.<.<.<.<.<.<.<.<.<.G : 9 %.<.<.<.<.<.<.<.<.<.<.<.<.<.<.<.<.<.<.<.<.<.<.<.<.& . . . . . L <.<.<.g ",
"g <.<.<.<.<.<.<.<.<.<.<.<.<.<.:.o.<.<.<.<.<.<.<.<.Z : : G <.<.<.<.<.<.<.<.-.,.<.<.<.<.<.<.<.<.<.<.<.<.<.<._ . . . . 3 <.<.<.<.g ",
"g <.<.<.<.<.<.<.<.<.<.<.<.<.<.h   o.<.<.<.<.<.<.<.] : : ..<.<.<.<.<.<.>.x q k _ <.<.<.<.<.<.<.<.>.=.<.<.<.<.O.i 2 i >.<.<.<.<.g ",
"g <.<.<.<.<.<.<.<.<.<.<.<.<.<.0 @ o.<.<.<.<.<.<.<.<.>.,.<.<.<.<.<.<.<.M q q q q I <.<.<.<.<.<.<.Y : Y <.<.<.<.<.<.<.<.<.<.<.<.g ",
"g <.<.<.<.<.>.*.<.<.<.<.<.<.<.@.) <.<.<.<.<.<.<.<.<.<.<.<.<.<.<.<.<.<.q q q q q q _ <.<.<.<.<.<.w : { <.<.<.<.<.<.<.<.<.<.<.<.g ",
"g <.<.<.<.<.R A %.<.<.<.<.<.<.<.<.<.<.<.<.<.<.<.<.<.<.<.<.<.<.<.<.<.o.q q q q q q q $.<.<.<.<.<.] @.<.<.<.<.<.<.<.<.<.<.<.<.<.g ",
"g <.<.<.<.<./ H *.<.<.<.<.<.<.<.<.<.<.<.<.<.<.<.<.<.<.<.<.<.<.<.<.<.C q q q q q q q C <.<.<.<.<.<.<.<.<.<.<.<.<.<.<.<.<.<.<.<.g ",
"g <.<.<.<.<.<.<.<.<.<.<.<.<.<.<.<.<.<.<.<.<.<.<.<.<.<.<.<.<.<.<.<.<.M q q q q q q q M <.<.<.<.<.<.<.<.<.<.<.<.<.<.<.<.<.<.<.<.g ",
"g <.<.<.<.<.<.<.<.<.<.<.<.<.<.<.<.<.<.<.<.<.<.<.<.<.<.<.<.<.<.<.<.<.^ q q q q q q q ' <.<.<.<.<.<.<.<.<.<.<.<.<.<.<.<.<.<.<.<.g ",
"g <.<.<.<.<.<.<.<.<.<.<.<.<.<.<.<.<.<.<.<.<.J +.<.<.<.<.<.<.<.<.<.<.,.z q q q q h I <.<.<.<.<.<.<.<.<.<.<.<.<.<.<.<.<.<.<.<.<.g ",
"g <.<.<.<.<.<.<.<.<.<.<.<.<.<.<.<.<.<.<.<.+.o | <.<.<.<.,.,.<.<.<.<.<.>.t q q x +.<.<.<.<.<.<.<.<.<.<.<.<.<.<.<.<.<.<.<.<.<.<.g ",
"g o.~ <.<.<.<.<.<.<.<.<.<.<.<.<.<.<.<.<.<.,.+.<.<.<.<.,.A A <.<.<.<.<.<.$.W _ >.<.<.<.<.<.<.<.<.<.<.<.<.<.<.<.<.<.<.<.<.<.<.<.g ",
", . . O o.<.<.<.<.<.<.<.<.<.<.<.<.<.<.<.<.<.<.<.<.<.<.,.A A ;.<.<.<.<.<.<.<.<.<.<.<.<.<.<.<.<.<.<.<.<.<.<.<.<.<.<.<.<.<.<.<.<.g ",
"- . . . . O.<.<.<.<.)   T <.<.<.<.<.<.<.<.<.<.<.<.<.<.<.;.;.<.<.<.<.<.<.<.<.<.<.<.<.<.<.<.<.<.<.<.<.<.<.<.<.<.<.<.<.<.<.<.<.<.g ",
"- . . . . i <.<.<.<.B   b <.<.<.<.<.<.<.<.<.<.<.<.<.<.<.<.<.<.<.<.<.<.<.<.<.<.<.<.<.<.<.<.<.<.<.<.<.<.=.; I <.<.<.<.<.<.<.<.<.L ",
"- . . . . + <.<.<.<.>.:.<.<.<.<.<.<.<.<.<.<.<.<.<.<.<.<.<.<.<.<.<.<.<.<.<.<.<.<.<.<.<.<.<.<.<.<.<.<.<.T   4 <.<.<.<.<.<.<.<.<.g ",
"y - > > - , d d d d d d d d d f d d d d d f d d d d d d d d d d d d d d d d d d d d d d d d d d d d d a y u d d d d d d d d d u "
};
