/* XPM */
static char *wall1686816834[] = {
/* columns rows colors chars-per-pixel */
"64 64 55 1 ",
"  c None",
". c #010101",
"X c #090707",
"o c #0C0B0B",
"O c #100E0E",
"+ c #131212",
"@ c #181717",
"# c #1C1B1B",
"$ c #201F1F",
"% c #242323",
"& c #282727",
"* c #2B2929",
"= c #302E2E",
"- c #353333",
"; c #393737",
": c #3D3C3C",
"> c #413E3E",
", c #464343",
"< c #494646",
"1 c #4D4B4B",
"2 c #514E4E",
"3 c #555252",
"4 c #585555",
"5 c #5D5A5A",
"6 c #615E5E",
"7 c #656161",
"8 c #6A6666",
"9 c #6E6969",
"0 c #726D6D",
"q c #767272",
"w c #787474",
"e c #7E7979",
"r c #817D7D",
"t c #868181",
"y c #8A8585",
"u c #8D8989",
"i c #938D8D",
"p c #969191",
"a c #9A9494",
"s c #9E9999",
"d c #A29C9C",
"f c #A6A1A1",
"g c #A9A3A3",
"h c #ADABAB",
"j c #B3B2B2",
"k c #B8B6B6",
"l c #BCBABA",
"z c #C0BEBE",
"x c #C4C2C2",
"c c #C9C7C7",
"v c #CCCBCB",
"b c #D0CECE",
"n c #D4D3D3",
"m c #D8D7D7",
"M c #D9D9D9",
/* pixels */
"                                                                ",
"                                                                ",
"     $+X++@+O+@o.....Xo+@##                                     ",
"    ..............................XX........X#%&&&%%##$%        ",
"   @..<w900qwq0we1,<<:;*&$#o.............................o      ",
"   ..6gaaaaaaaaaf91433444324443<,,::,::>342,1,-&#%&-;;;&...     ",
"   ..tsaaaaaaaaad0<379qqq08533444444<qsr13438rwwwwwqwwww9X.+    ",
"   ..raaaaaaaaaad8<9eeewweew8334444<qvmmu<435wewwwwwwwwww7..    ",
"   +.4aaaaaaaaaaa35ewwwwwwwweq43443,snkxx71438ewwwwwwwwwwe%.+   ",
"   #.-aaaaaaaaage<wewwwwwwwwwew4344,umlcx714339ewwwwwwwwww<..   ",
"   &.#aaaaaaaada33wwwwwwwwwwwwe934423dbnu<444338rewwwqwq0ew@.&  ",
"    .oaaaaaaadf8<4wewwwwwwwwwwwe534411eq<344444360weee0wiad1.&  ",
"    ..aaaaaadd8<438ewwwwwwwwwwwe734443,<454344441<4885esdaa8.#  ",
"    ..daadddu5<4435ewwwwwqwwwwwe8344444444444441281,<8ddaaaw.o  ",
"    ..tpppir83334438ewwwwwwwwwwe8221134444444433svj41ddpaaar.X  ",
"    ..00ew00er0434348rwwwwqwwwew21698612444444,tmlnhtdaaaaar..  ",
"    ..wwqqwwwwew624327wrewwwwew58usdssy3244444>amllcfiaaaaar.X  ",
"    ..wwqwwwwwqee5244248qweee85tffaaashu234444<8vvvlppaaaaae.X  ",
"    .Xwwwwwwwwwwew522342356633ifaaaaaaagw144444<qjgpaaaaaaaw.+  ",
"    .owwwwwwwwwqqr91611543311ugaaaaaaaafy2344444<<<tfaaaaaaw.o  ",
"   =.+wwwwwqwwwwqqqdzg51444<wgaaaaaaaaadu334444433<tfaaaaaaw.o  ",
"    .Owwwwwwwwwww8snxnh13434ssaaaaaaaaasu334344444<7dspaaaae.X  ",
"    ..wwqwwwqwqww8gvllc8<41qfaaaaaaaaaage<4444444348tddsssde.X  ",
"    ..9wwwwwwwwwq9yvcmk434<efaaaaaaaaass7244444434we0eippiy7..  ",
"    ..5wwwwwwwwwww9pkh91424ussaaaaaaaade134444443qeww00wqq06..  ",
"    +.<wwwwwqwwwwwq07<1427qisaaaaaaaada4134444337ewqwwwqqqq7..  ",
"    #.-wwwwwwwwwwwwe62428rqedsaaaaaadaeq833333430ewwwwwqwww6..  ",
"    &.#wwwwqwwwwwqew4326eww0ysssaaddiw0wr8<3<244qwwwwwwwwww7.X  ",
"     ..wwwwwwwwwwwr83330ewwqqyasaair0qwqwwahs5<4qwwwqwwwwww5.X  ",
"     ..9qwwqwwwqwr93335wwwwwq0qerwq0wwww8ubvMg13qewwwwwwwww5.X  ",
"     ..7ewwwwweee833436ewwwwwwqqqqwwwqww8fvlzc8<9ewwwwwwwww5.o  ",
"     ..2qweeew095334436wwwwwwwwqwqwwwwww8uvxcz6<7ewqwwwqwww5.o  ",
"     o.-455765432444425wwwqwwwwwwwqwwwwww0azcy<43qeqwqwwwww5.o  ",
"     +.*433233344444444qewwwwwwwwwwwwwqwwq9ee83435rwwwwwwww5.X  ",
"     #.&4444444442111229ewwwwqwqqwwwwwwwqww0qw53438rwwwwwww7..  ",
"     #.#44444441160ww6<3ewwwwwwwwwwwwwwwwwwwww634329rwwwqww8..  ",
"     %.+444444<7tddgfdt17rwwwwwwwwwwwwwwwwqwww5343<<60qwwww7..  ",
"      ..344431wdgaaaaahr<9ewwwwwwwwwqwwwwwwweq52<5qeeyr0www7..  ",
"      ..3444<wgdaaaaaass7<wewwwwwqwqwwwwwwwwe0<2waffdddy0ee6.X  ",
"      ..131<0gaaaaaaaaafw,4qeewwwwwwwwwqwwqwe32igsaaaaafw5q6.X  ",
"      ..1679adaaaaaaaaadw<437eewwwwqwwwwwwer42agaaaaaaadi23<.X  ",
"      ..6ewidaaaaaaaaaadq<44359erewwwwwweew6<ygaaaaaaaaad71:..  ",
"      ..7wqiaaaaaaaaaaad5344333480weeeewq84,0gaaaaaaaaaas81:.X  ",
"      ..60eaaaaaaaaaaadr<4443443234666654223idaaaaaaaaasa53:.X  ",
"      ..80eaaaaaaaaaaad8<444444421<,<1333427saaaaaaaaaafy14:.o  ",
"      ..wwwpaaaaaaapddrw7144451160ee031444<9daaaaaaaaaaf9<4:.X  ",
"     &.#ww0udaaaaaaddr0ee5344<4taddgdi62422wdaaaaaaaaafy144:.o  ",
"     $.;ww0widdaaddar0wweq34<8sgdaaaaga3260rdaaaaaaaada3144:.o  ",
"     X.3qwwqqypapitw0wwwq03;8gdaaaaaaag04ee0idaaaaaadaw7524;.o  ",
"     ..8wwwwq9qww00qwwwqqsfepdaaaaaaaaduqwwqwidsaddauq0rw62-.O  ",
"     ..wwwwwwwwqqwwwwwq8sbvvfuaaapaaaasiqwwwqqyiiiue00wqer6%.+  ",
"     .Xwwwqwwwwwwwwwwwqqkxlxkpaaaaaaaadu0wwwwq0qwq00wwww0ee$.#  ",
"     ..wwwwwwwqwwwwwwww9hvlxkapaaaaaaasr0wwwwwwwwwwwwqwwwqe-.@  ",
"     ..0qwwwwwwwwwqwwww9ekczspaaaaaaasawqwwwwwwqwwwwwwwwwww<.o  ",
"     ..4wwwwqwwwwwwwwwww9qdsaaaaaaaaafe0wwwwwwwwwwqwwwwqwww4.X  ",
"     @.*eeqwwwwwwqwwwwwww9ysaaaaaaaage4wwwwwwwwwwwwwwwwwqww6..  ",
"     %.o5weewwwwwwwwwqwqe09dsaaaaadgr<3wewwqwwwwwwwwwqwwwww2.+  ",
"      ..<48eeewwwwwwwweew5<wffddddaq1338ewwwwwwwwqwwwwwwwww-.#  ",
"      ..:3359weeeeweeee943418yiiyw413533weqqqwwwwwwwwwqwwqwO.&  ",
"      +.X<1<<<11111333<-------::-&%$@ooXo.....+#=,2432<:=%...   ",
"       .....................................................*   ",
"        +......XoOoXX..Xo++ooXXoo+###          *%#+o++##&&      ",
"                                                                ",
"                                                                "
};
